<?xml version="1.0" encoding="iso-8859-1"?>
<!-- Generator: Adobe Illustrator 16.0.0, SVG Export Plug-In . SVG Version: 6.00 Build 0)  -->
<!DOCTYPE svg PUBLIC "-//W3C//DTD SVG 1.1//EN" "http://www.w3.org/Graphics/SVG/1.1/DTD/svg11.dtd">
<svg xmlns="http://www.w3.org/2000/svg" xmlns:xlink="http://www.w3.org/1999/xlink" version="1.1" id="Capa_1" x="0px" y="0px" width="512px" height="512px" viewBox="0 0 550.067 550.067" style="enable-background:new 0 0 550.067 550.067;" xml:space="preserve">
<g>
	<path d="M543.181,25.577c4.284-6.12,0.612-17.748-9.181-18.36c-85.68-7.344-171.359-3.672-257.039-0.611   c-83.844,3.672-167.688-2.448-250.92,0c-0.612,0-1.224,0-1.224,0c-4.284-1.836-9.792,0-11.628,4.284   c-31.212,100.367,3.672,209.916-3.06,312.731c-3.06,42.84-7.344,85.68-7.344,129.132c0,21.42-0.612,57.528,13.464,76.5   c-1.224,4.284,1.224,9.792,6.732,9.18c89.964-6.119,179.316,1.836,269.28,1.225c74.664-0.612,159.12,17.136,233.172,0   c1.836,0,4.284-0.612,6.12-1.836c4.896-3.061,6.12-9.181,3.672-13.464c7.344-89.353,3.672-178.704,7.956-268.057   C546.853,179.189,556.645,101.464,543.181,25.577z M182.101,431.945c-20.808,0.611-37.944-20.809-44.676-37.944   c-7.956-19.584-4.284-36.72,9.18-50.184c2.448,0.611,4.896,0.611,7.344-1.225C211.477,305.26,246.36,430.109,182.101,431.945z    M343.057,439.289c-4.284,4.284-9.792,6.731-15.3,7.956c-6.732,1.836-12.24,0-15.301-3.672   c9.181-42.229-22.031-88.128-48.348-117.504c-31.212-34.885-78.948-59.364-126.684-51.408c0,0,0,0-0.612,0   c-14.688-9.792-19.584-35.496,0-44.063c2.448-1.225,3.672-2.448,4.896-4.896c57.528,6.12,109.548,20.809,153,61.812   c43.451,41.004,45.899,89.353,55.691,142.597C347.341,433.168,345.505,436.229,343.057,439.289z M460.561,428.884   c-4.896,5.508-11.016,9.792-17.748,11.628c-12.24,4.284-19.584-0.611-23.868-10.403c15.3-36.108-45.899-141.372-56.304-159.732   c-47.736-82.62-129.132-118.728-221.544-99.756c-0.612,0-1.224,0-1.836,0c-14.688,3.061-18.36-10.404-17.748-22.644   c0.612-7.345,3.672-14.076,8.568-18.973c1.224-1.224,2.448-2.447,4.284-3.06c0.612,0,1.836,0.612,3.06,0   c43.452-7.956,79.56-12.853,122.4,0c41.616,12.24,78.335,39.78,109.547,69.156c63.648,61.199,92.412,138.924,95.473,225.216   C463.62,423.989,462.396,427.048,460.561,428.884z" fill="#FFFFFF"/>
</g>
<g>
</g>
<g>
</g>
<g>
</g>
<g>
</g>
<g>
</g>
<g>
</g>
<g>
</g>
<g>
</g>
<g>
</g>
<g>
</g>
<g>
</g>
<g>
</g>
<g>
</g>
<g>
</g>
<g>
</g>
</svg>
