<?xml version="1.0" encoding="utf-8"?>
<!-- Generator: Adobe Illustrator 17.0.0, SVG Export Plug-In . SVG Version: 6.00 Build 0)  -->
<!DOCTYPE svg PUBLIC "-//W3C//DTD SVG 1.1//EN" "http://www.w3.org/Graphics/SVG/1.1/DTD/svg11.dtd">
<svg version="1.1" id="Capa_1" xmlns="http://www.w3.org/2000/svg" xmlns:xlink="http://www.w3.org/1999/xlink" x="0px" y="0px"
	 width="512px" height="512px" viewBox="0 0 512 512" enable-background="new 0 0 512 512" xml:space="preserve">
<g>
	<path fill="#A95050" d="M505.591,23.807c3.988-5.696,0.57-16.52-8.546-17.089c-79.751-6.836-159.5-3.418-239.251-0.569
		c-78.042,3.418-156.083-2.279-233.555,0c-0.57,0-1.139,0-1.139,0c-3.988-1.709-9.114,0-10.823,3.988
		c-29.052,93.421,3.418,195.389-2.848,291.089C6.58,341.1,2.592,380.976,2.592,421.421c0,19.938-0.57,53.547,12.532,71.206
		c-1.139,3.988,1.139,9.114,6.266,8.545c83.738-5.696,166.907,1.709,250.645,1.14c69.497-0.57,148.108,15.95,217.035,0
		c1.709,0,3.988-0.57,5.696-1.709c4.557-2.849,5.696-8.546,3.418-12.532c6.836-83.169,3.418-166.337,7.405-249.506
		C509.008,166.788,518.123,94.442,505.591,23.807z M169.499,402.053c-19.368,0.569-35.318-19.369-41.584-35.318
		c-7.405-18.229-3.988-34.179,8.545-46.711c2.279,0.569,4.557,0.569,6.836-1.14C196.842,284.135,229.311,400.344,169.499,402.053z
		 M319.316,408.888c-3.988,3.988-9.114,6.265-14.241,7.405c-6.266,1.709-11.393,0-14.242-3.418
		c8.546-39.307-20.506-82.029-45.002-109.372c-29.052-32.471-73.484-55.256-117.917-47.85c0,0,0,0-0.57,0
		c-13.672-9.114-18.229-33.04,0-41.014c2.279-1.14,3.418-2.279,4.557-4.557c53.547,5.696,101.967,19.369,142.412,57.534
		c40.444,38.166,42.723,83.169,51.837,132.729C323.303,403.191,321.595,406.04,319.316,408.888z M428.688,399.203
		c-4.557,5.127-10.254,9.114-16.52,10.823c-11.393,3.988-18.229-0.569-22.216-9.683c14.241-33.609-42.723-131.588-52.408-148.678
		c-44.432-76.902-120.196-110.512-206.212-92.852c-0.57,0-1.139,0-1.709,0c-13.672,2.849-17.089-9.684-16.52-21.077
		c0.57-6.837,3.418-13.102,7.975-17.66c1.139-1.139,2.279-2.278,3.988-2.848c0.57,0,1.709,0.57,2.848,0
		c40.445-7.405,74.054-11.964,113.929,0c38.736,11.393,72.914,37.027,101.966,64.37c59.243,56.964,86.017,129.31,88.866,209.63
		C431.535,394.647,430.396,397.494,428.688,399.203z"/>
</g>
</svg>
