<?xml version="1.0" encoding="utf-8"?>
<!-- Generator: Adobe Illustrator 17.0.0, SVG Export Plug-In . SVG Version: 6.00 Build 0)  -->
<!DOCTYPE svg PUBLIC "-//W3C//DTD SVG 1.1//EN" "http://www.w3.org/Graphics/SVG/1.1/DTD/svg11.dtd">
<svg version="1.1" id="Capa_1" xmlns="http://www.w3.org/2000/svg" xmlns:xlink="http://www.w3.org/1999/xlink" x="0px" y="0px"
	 width="512px" height="512px" viewBox="0 0 512 512" enable-background="new 0 0 512 512" xml:space="preserve">
<g>
	<path fill="#7468A6" d="M485.386,183.272c-3.191-8.774-10.37-16.751-15.156-21.537c-11.167-9.572-26.323-15.156-40.681-12.763
		c-1.597-0.798-3.191-0.798-4.786,0c-39.086,19.144-69.397,55.836-96.519,88.541c-31.905,37.492-63.015,74.98-96.517,110.875
		c-2.393,0-3.988,1.597-5.584,3.191c-17.549,24.728-21.537,58.229-34.3,85.35c-3.988,8.773,5.584,16.751,13.56,10.37
		c23.93-20.739,51.049-37.491,81.362-48.658c1.595-0.798,3.189-1.597,3.988-3.191c39.883-22.336,71.79-65.41,102.899-98.113
		c19.144-19.942,39.883-39.883,59.027-60.622c2.393-0.798,3.988-3.191,4.786-5.584c11.166-12.763,22.335-25.525,31.905-39.086
		C492.565,188.058,489.375,184.07,485.386,183.272z M293.947,307.708c-0.798,0-1.597-0.798-3.191-0.798
		c3.191-3.988,6.381-7.179,9.572-11.166C298.733,299.731,296.34,303.721,293.947,307.708z M417.585,218.37L417.585,218.37
		c-0.796-2.393-3.189-4.786-5.582-6.381c0-0.798,0.796-1.595,0.796-2.393c0-0.798,0-1.595,0-1.595
		c3.191,3.191,6.381,5.584,9.572,8.774C420.776,216.774,419.18,217.572,417.585,218.37z M244.492,399.439L244.492,399.439
		c-0.798-3.988-3.191-7.977-7.977-7.977c-1.595-1.595-3.988-3.189-6.381-3.988c-0.798,0-1.595,0-2.393,0
		c0-0.798,0.798-2.393,0.798-3.191c0.798-2.393,6.381-15.953,7.977-25.525c2.393-1.595,3.988-3.191,5.584-4.786l0.798,0.798
		c-2.393,3.189,2.393,6.381,4.786,4.786c0.798,0.796,0.798,0.796,1.595,1.595c0.798,3.191,3.191,5.584,6.381,5.584
		c3.191,3.191,6.381,5.584,9.572,8.773c1.595,1.597,4.786,5.584,8.773,9.573C264.433,389.869,254.064,394.653,244.492,399.439z
		 M446.301,214.381c-11.965-11.965-25.525-23.132-39.086-32.704c3.99-3.988,7.977-7.179,11.966-11.167
		c11.965,11.167,23.929,23.132,37.49,33.502C452.682,207.202,449.492,210.393,446.301,214.381z"/>
	<path fill="#7468A6" d="M404.822,351.581c-0.796-5.584-5.582-11.167-11.965-7.977c-17.549,7.179-32.704,20.739-47.86,32.704
		c-17.549,14.359-35.099,30.311-50.254,47.062c-1.595-0.798-3.988-0.798-5.582-0.798c-7.977,2.393-13.56,7.179-20.739,11.167
		c-13.56,7.977-28.716,13.56-43.074,18.346c-19.942,7.179-41.479,12.763-63.015,12.763c12.763-42.277,27.121-83.756,37.49-126.031
		v-0.798c7.179-4.786,12.763-12.763,19.144-18.346c18.346-19.144,36.693-38.288,55.04-57.431
		c18.345-19.144,35.895-38.288,53.444-57.432c23.929-26.323,52.646-48.658,75.778-74.98c1.595-1.595,1.595-3.988,1.595-6.381
		c1.597-0.798,2.393-1.595,3.191-2.393c7.179-10.37,3.99-27.121,3.191-39.086c-0.798-18.346-3.191-37.49-6.381-55.836
		c0-1.595-1.595-3.191-2.393-3.988c0-3.988-2.393-8.774-6.381-10.37c-62.218-22.335-141.984-5.584-207.393-7.977
		C157.546,3,127.235,3,96.126,5.393c-15.156,0.798-34.3,1.595-47.062,10.37c-2.393,0-5.584,0.798-7.179,3.988
		C14.765,85.16,21.146,166.522,24.337,235.918c3.191,82.958,11.167,165.118,12.763,248.075c-3.191,4.786-2.393,11.167-0.798,18.346
		c0.798,3.99,4.786,6.381,8.774,6.381c19.942,0,39.883,3.189,59.825,3.189c7.179,0,17.549,0.798,25.525-2.393
		c86.148,2.393,173.892-0.796,260.038-7.977c5.584-0.796,8.773-5.582,8.773-10.37c1.597-1.595,3.191-3.189,3.191-5.582
		c0.798,0,0.798-0.798,1.597-1.597c3.988-5.584,0.796-11.965,0.796-18.346c-0.796-12.763,0.798-26.322,2.393-39.084
		c2.393-23.132,6.381-47.062,1.597-70.194C407.215,353.974,406.418,352.379,404.822,351.581z"/>
</g>
</svg>
