<?xml version="1.0" encoding="iso-8859-1"?>
<!-- Generator: Adobe Illustrator 16.0.0, SVG Export Plug-In . SVG Version: 6.00 Build 0)  -->
<!DOCTYPE svg PUBLIC "-//W3C//DTD SVG 1.1//EN" "http://www.w3.org/Graphics/SVG/1.1/DTD/svg11.dtd">
<svg xmlns="http://www.w3.org/2000/svg" xmlns:xlink="http://www.w3.org/1999/xlink" version="1.1" id="Capa_1" x="0px" y="0px" width="512px" height="512px" viewBox="0 0 392.827 392.827" style="enable-background:new 0 0 392.827 392.827;" xml:space="preserve">
<g>
	<path d="M372.408,140.614c-2.448-6.732-7.956-12.852-11.628-16.524c-8.568-7.344-20.196-11.628-31.212-9.792   c-1.225-0.612-2.448-0.612-3.672,0c-29.988,14.688-53.244,42.84-74.053,67.932c-24.479,28.765-48.348,57.528-74.052,85.068   c-1.836,0-3.06,1.225-4.284,2.448c-13.464,18.972-16.524,44.676-26.316,65.484c-3.06,6.731,4.284,12.852,10.404,7.956   c18.36-15.912,39.167-28.765,62.424-37.332c1.224-0.612,2.447-1.225,3.06-2.448c30.6-17.137,55.08-50.185,78.948-75.276   c14.688-15.3,30.6-30.6,45.288-46.512c1.836-0.612,3.06-2.448,3.672-4.284c8.567-9.792,17.136-19.584,24.479-29.988   C377.916,144.286,375.468,141.226,372.408,140.614z M225.528,236.086c-0.612,0-1.225-0.612-2.448-0.612   c2.448-3.06,4.896-5.508,7.344-8.567C229.2,229.966,227.364,233.027,225.528,236.086z M320.388,167.542L320.388,167.542   c-0.611-1.836-2.447-3.672-4.283-4.896c0-0.612,0.611-1.224,0.611-1.836s0-1.224,0-1.224c2.448,2.448,4.896,4.284,7.344,6.732   C322.836,166.318,321.612,166.93,320.388,167.542z M187.584,306.466L187.584,306.466c-0.612-3.06-2.448-6.12-6.12-6.12   c-1.224-1.224-3.06-2.447-4.896-3.06c-0.612,0-1.224,0-1.836,0c0-0.612,0.612-1.836,0.612-2.448   c0.612-1.836,4.896-12.24,6.12-19.584c1.836-1.224,3.06-2.448,4.284-3.672l0.612,0.612c-1.836,2.447,1.836,4.896,3.672,3.672   c0.612,0.611,0.612,0.611,1.224,1.224c0.612,2.448,2.448,4.284,4.896,4.284c2.448,2.448,4.896,4.284,7.344,6.731   c1.224,1.225,3.672,4.284,6.731,7.345C202.884,299.123,194.928,302.794,187.584,306.466z M342.42,164.482   c-9.18-9.18-19.584-17.748-29.988-25.092c3.061-3.06,6.12-5.508,9.181-8.568c9.18,8.568,18.359,17.748,28.764,25.704   C347.316,158.974,344.868,161.422,342.42,164.482z" fill="#FFFFFF"/>
	<path d="M310.596,269.747c-0.611-4.284-4.283-8.568-9.18-6.12c-13.464,5.508-25.092,15.912-36.72,25.092   c-13.464,11.017-26.929,23.256-38.557,36.108c-1.224-0.612-3.06-0.612-4.283-0.612c-6.12,1.836-10.404,5.508-15.912,8.568   c-10.404,6.12-22.032,10.404-33.048,14.076c-15.3,5.508-31.824,9.792-48.348,9.792c9.792-32.437,20.808-64.261,28.764-96.696   v-0.612c5.508-3.672,9.792-9.792,14.688-14.076c14.076-14.688,28.152-29.376,42.229-44.063   c14.075-14.688,27.54-29.376,41.004-44.064c18.359-20.196,40.392-37.332,58.14-57.528c1.224-1.224,1.224-3.06,1.224-4.896   c1.225-0.612,1.836-1.224,2.448-1.836c5.508-7.956,3.061-20.808,2.448-29.988c-0.612-14.076-2.448-28.764-4.896-42.84   c0-1.224-1.224-2.448-1.836-3.06c0-3.06-1.836-6.732-4.896-7.956c-47.736-17.136-108.936-4.284-159.12-6.12   C120.876,2.302,97.62,2.302,73.752,4.138C62.124,4.75,47.436,5.362,37.644,12.094c-1.836,0-4.284,0.612-5.508,3.06   C11.328,65.338,16.224,127.762,18.672,181.006c2.448,63.649,8.568,126.685,9.792,190.333c-2.448,3.672-1.836,8.568-0.612,14.076   c0.612,3.061,3.672,4.896,6.732,4.896c15.3,0,30.6,2.447,45.9,2.447c5.508,0,13.464,0.612,19.584-1.836   c66.096,1.836,133.417-0.611,199.512-6.12c4.284-0.611,6.731-4.283,6.731-7.956c1.225-1.224,2.448-2.447,2.448-4.283   c0.612,0,0.612-0.612,1.225-1.225c3.06-4.284,0.611-9.18,0.611-14.076c-0.611-9.792,0.612-20.195,1.836-29.987   c1.836-17.748,4.896-36.108,1.225-53.856C312.432,271.583,311.82,270.359,310.596,269.747z" fill="#FFFFFF"/>
</g>
<g>
</g>
<g>
</g>
<g>
</g>
<g>
</g>
<g>
</g>
<g>
</g>
<g>
</g>
<g>
</g>
<g>
</g>
<g>
</g>
<g>
</g>
<g>
</g>
<g>
</g>
<g>
</g>
<g>
</g>
</svg>
