<?xml version="1.0" encoding="utf-8"?>
<!-- Generator: Adobe Illustrator 17.0.0, SVG Export Plug-In . SVG Version: 6.00 Build 0)  -->
<!DOCTYPE svg PUBLIC "-//W3C//DTD SVG 1.1//EN" "http://www.w3.org/Graphics/SVG/1.1/DTD/svg11.dtd">
<svg version="1.1" id="Capa_1" xmlns="http://www.w3.org/2000/svg" xmlns:xlink="http://www.w3.org/1999/xlink" x="0px" y="0px"
	 width="512px" height="512px" viewBox="0 0 512 512" enable-background="new 0 0 512 512" xml:space="preserve">
<g>
	<path fill="#64AB80" d="M451.51,85.156c-20.378-15.284-50.219-10.19-74.238-7.278c0-2.911,0-5.823,0-8.734
		c0-11.645,0-22.563-1.454-34.208c-1.457-13.829-9.463-35.664-26.931-33.48c-16.74,2.183-18.923,24.018-19.65,37.119
		c-1.457,13.101-2.183,30.569,0.727,44.397c-35.664,1.456-71.328-0.728-106.991-5.095c-6.55-0.728-16.74-2.183-28.385-4.367
		c0.728-15.284,0-30.569-2.183-45.853C190.221,13.829,183.67,0,167.658,0c-14.557,0-18.924,17.468-20.379,28.385
		c-2.183,11.645-3.639,26.93-1.456,40.03c-44.397-2.183-89.523,3.639-90.978,40.758c-0.728,0.728-0.728,2.183-0.728,3.639
		c-0.728,37.119-5.823,74.966-8.734,112.085c-4.367,48.037-2.183,97.528-2.183,145.564c0,29.113-13.829,75.694,3.639,101.896
		c13.829,20.38,35.664,28.386,58.226,33.48c58.954,13.101,120.819,1.457,180.501,0c53.131-1.457,125.186,17.468,167.4-24.747
		c21.107-21.107,19.65-64.048,20.38-90.978c0.727-49.491-8.734-96.8-8.006-144.109C466.066,204.519,491.54,115.724,451.51,85.156z
		 M401.292,484.733c-45.854,10.19-96.074-1.454-143.382,2.183c-50.948,3.64-104.079,8.734-155.027-2.183
		c-35.664-8.006-45.125-29.113-42.942-64.048c2.183-39.304,2.911-77.877,2.911-116.452c0-35.664,4.367-72.055,7.278-107.718
		c62.593,5.095,126.642,2.183,188.506,2.183c64.778,0.728,128.825,0,193.603-5.095c-2.183,34.208-5.823,67.688-3.64,101.897
		c2.184,35.664,5.823,70.598,5.823,106.263C452.966,442.519,445.689,474.542,401.292,484.733z"/>
	<path fill="#64AB80" d="M153.102,219.076c-12.373-13.101-38.575-4.367-53.131-0.728c-0.728,0-1.456,0.728-2.183,1.456
		c-3.639,0-6.55,2.183-7.278,6.55c-2.183,15.284-2.183,29.841,0,44.397c0.728,4.367,5.095,6.55,8.734,6.55
		c17.468,0,34.936,2.183,53.131,0c5.095-0.727,9.462-3.64,9.462-9.461C161.108,253.284,164.019,231.449,153.102,219.076z"/>
	<path fill="#64AB80" d="M244.808,219.804c-9.462-2.183-18.923-2.911-28.385-2.911c-8.006,0-19.651,0-26.93,4.367
		c-2.911,1.456-4.367,5.095-3.639,8.006c-0.728,2.183-1.456,5.095-2.183,7.278c-2.183,10.19-2.183,21.107-2.911,31.297
		c0,3.638,2.911,8.004,6.55,8.734c17.468,2.91,34.936,2.91,53.131,2.91c5.095,0,8.734-4.367,8.734-8.734
		c0-13.101,0-26.202,2.183-39.303C252.086,226.354,249.903,221.259,244.808,219.804z"/>
	<path fill="#64AB80" d="M327.054,224.898c-11.646-13.829-29.113-14.557-44.397-8.006c-1.457,0.728-2.184,1.456-3.64,2.183
		c-2.183-2.911-7.279-2.911-9.463,1.456c-5.821,15.284-8.005,33.48-8.734,50.22c0,5.094,4.367,8.734,9.463,9.463
		c18.194,1.454,34.935-3.64,53.131-4.369c5.094,0,9.461-4.367,9.461-9.461C332.874,252.556,336.514,236.544,327.054,224.898z"/>
	<path fill="#64AB80" d="M415.848,217.62c-10.92,0-21.107,0-32.027,0.728c-8.004,0-21.107-1.456-25.474,7.278
		c-0.727,0.728-0.727,2.183-0.727,2.911c-8.734,7.278-5.094,30.569-5.823,38.575c0,5.096,4.367,8.734,8.734,8.734
		c17.469,0.729,34.937,0.729,53.134,0.729c3.638,0,8.004-2.912,8.734-6.55c2.183-13.829,2.91-27.657,2.91-42.215
		C425.309,221.259,420.942,217.62,415.848,217.62z"/>
	<path fill="#64AB80" d="M153.83,304.959c-16.74,0-33.48,0-50.948,0c-3.639,0-8.734,2.913-9.462,7.279
		c-2.183,13.101-2.183,26.201-2.183,40.03c0,2.184,0.728,4.367,2.183,5.821c0,2.183,0.728,5.096,3.639,6.55
		c17.468,7.279,37.847,5.096,56.77,4.367c5.095,0,9.462-4.367,9.462-9.461c0-14.557,0-29.113,0-43.671
		C163.291,309.326,159.652,304.959,153.83,304.959z"/>
	<path fill="#64AB80" d="M161.108,398.121c0-5.094-4.367-9.461-9.462-9.461c-16.012,0-35.664-0.729-48.764,10.19
		c-10.917,9.461-13.829,33.478-8.734,45.852c-0.728,2.183,0.728,5.823,3.639,5.823c18.196,2.91,37.847,3.64,56.043,4.367
		c4.367,0,9.462-4.367,8.734-8.734C161.108,430.875,161.108,414.135,161.108,398.121z"/>
	<path fill="#64AB80" d="M249.175,310.055c0.728-5.096-4.367-9.463-8.734-8.736c-13.829,0-27.657,2.186-41.486,2.186
		c-2.183,0-4.367,0.727-5.823,2.183c-8.006,1.454-10.19,6.55-10.917,14.554c-1.456,11.646,0,22.564-0.728,34.21
		c0,5.094,4.367,8.734,8.734,8.734c16.74,0.727,33.48,0,50.948,0c6.55,0,9.462-5.823,8.734-11.646
		C246.264,337.713,246.991,323.883,249.175,310.055z"/>
	<path fill="#64AB80" d="M237.53,387.204c-8.734,1.457-18.196,2.91-26.93,3.64c-3.639,0.727-7.278,0-10.917,1.454
		c-1.456,0.729-2.183,0.729-3.639,1.457l-0.728,0.729c-0.728,0.727-1.456,0.727-2.183,1.454c-1.456,0.729-2.183,1.457-2.183,2.913
		c-4.367,14.554-5.095,30.568-5.823,45.124c0,3.64,2.911,8.006,6.55,8.734c15.284,2.183,30.569,2.91,46.581,2.91
		c5.095,0,8.006-4.367,8.734-8.734c2.183-16.74,2.183-33.48,2.183-50.948C249.175,389.387,243.352,386.477,237.53,387.204z"/>
	<path fill="#64AB80" d="M334.331,437.424c-1.457-12.373-1.457-24.747,0-37.12c0.727-6.55-2.184-10.917-8.734-11.644
		c-8.006-1.457-16.74-0.729-24.747,0.727c-8.006,0.727-16.011,0.727-24.017,2.913c-4.367,1.454-6.55,5.821-5.823,10.187
		c-2.91,13.103-2.91,26.931-7.277,39.304c-2.185,5.094,2.91,10.917,8.734,10.917c17.468,0,34.935-3.64,53.131-4.367
		C332.147,449.069,335.057,443.248,334.331,437.424z"/>
	<path fill="#64AB80" d="M321.23,301.319c-13.83,0-28.386,0-42.214,2.186c-2.913,0.727-5.823,3.638-6.55,6.55
		c-2.184,9.461-4.367,26.201,0,36.391c-5.823,2.183-5.096,10.917,2.183,11.644c13.828,0.729,28.384,0,41.485,2.183
		c5.823,1.457,10.92-2.183,10.92-8.734c0-13.101,0-26.201,2.183-39.301C330.69,307.143,327.78,301.319,321.23,301.319z"/>
	<path fill="#64AB80" d="M415.848,316.606c0-6.55-5.823-9.463-10.92-8.734c-13.101,2.183-28.384,2.183-40.03,10.187
		c-5.821,4.367-8.734,9.463-10.187,16.74c-1.457,7.279-1.457,19.652,6.55,23.29l0,0c0.727,1.457,2.183,2.184,3.638,2.913
		c13.103,2.91,27.66,1.454,41.487,2.184c5.094,0,8.006-4.367,8.734-8.734C416.575,342.08,415.848,328.979,415.848,316.606z"/>
	<path fill="#64AB80" d="M420.215,402.488c-0.729-3.638-5.096-6.55-8.736-6.55c-8.734,0-17.468,0.729-26.928,1.457
		c-7.279,0.727-14.557,0-20.38,4.367c-1.457,1.457-2.183,3.64-2.183,5.094c-5.823,10.92-5.094,23.29-7.277,34.937
		c-0.729,5.094,2.184,11.644,8.734,10.917c16.74-2.184,33.48-2.184,50.948-2.184c5.094,0,8.734-4.367,8.734-8.734
		C423.125,428.691,422.399,415.59,420.215,402.488z"/>
</g>
</svg>
