<?xml version="1.0" encoding="iso-8859-1"?>
<!-- Generator: Adobe Illustrator 16.0.0, SVG Export Plug-In . SVG Version: 6.00 Build 0)  -->
<!DOCTYPE svg PUBLIC "-//W3C//DTD SVG 1.1//EN" "http://www.w3.org/Graphics/SVG/1.1/DTD/svg11.dtd">
<svg xmlns="http://www.w3.org/2000/svg" xmlns:xlink="http://www.w3.org/1999/xlink" version="1.1" id="Capa_1" x="0px" y="0px" width="512px" height="512px" viewBox="0 0 430.52 430.52" style="enable-background:new 0 0 430.52 430.52;" xml:space="preserve">
<g>
	<path d="M379.656,71.604c-17.135-12.852-42.227-8.568-62.424-6.12c0-2.448,0-4.896,0-7.344c0-9.792,0-18.972-1.223-28.764   c-1.225-11.628-7.957-29.988-22.645-28.152c-14.076,1.836-15.912,20.196-16.523,31.212c-1.225,11.016-1.836,25.704,0.611,37.332   c-29.988,1.224-59.977-0.612-89.964-4.284c-5.508-0.612-14.076-1.836-23.868-3.672c0.612-12.852,0-25.704-1.836-38.556   C159.949,11.628,154.441,0,140.977,0c-12.24,0-15.912,14.688-17.136,23.868c-1.836,9.792-3.06,22.644-1.224,33.66   c-37.332-1.836-75.276,3.06-76.5,34.272c-0.612,0.612-0.612,1.836-0.612,3.06c-0.612,31.212-4.896,63.036-7.344,94.248   c-3.672,40.392-1.836,82.007-1.836,122.399c0,24.48-11.628,63.648,3.06,85.68c11.628,17.137,29.988,23.869,48.96,28.152   c49.572,11.016,101.592,1.225,151.776,0c44.676-1.225,105.264,14.688,140.76-20.809c17.748-17.748,16.523-53.855,17.137-76.5   c0.611-41.615-7.344-81.395-6.732-121.175C391.896,171.972,413.316,97.308,379.656,71.604z M337.43,407.592   c-38.557,8.568-80.785-1.223-120.564,1.836c-42.84,3.061-87.516,7.344-130.356-1.836c-29.988-6.732-37.944-24.48-36.108-53.855   c1.836-33.049,2.448-65.484,2.448-97.92c0-29.988,3.672-60.588,6.12-90.576c52.632,4.284,106.488,1.836,158.507,1.836   c54.469,0.612,108.324,0,162.793-4.284c-1.836,28.764-4.896,56.916-3.061,85.681c1.836,29.988,4.896,59.363,4.896,89.352   C380.881,372.096,374.762,399.023,337.43,407.592z" fill="#FFFFFF"/>
	<path d="M128.737,184.212c-10.404-11.016-32.436-3.672-44.676-0.612c-0.612,0-1.224,0.612-1.836,1.224   c-3.06,0-5.508,1.836-6.12,5.508c-1.836,12.852-1.836,25.092,0,37.332c0.612,3.672,4.284,5.508,7.344,5.508   c14.688,0,29.376,1.836,44.676,0c4.284-0.611,7.956-3.061,7.956-7.955C135.469,212.976,137.917,194.616,128.737,184.212z" fill="#FFFFFF"/>
	<path d="M205.849,184.824c-7.956-1.836-15.912-2.448-23.868-2.448c-6.732,0-16.524,0-22.644,3.672   c-2.448,1.224-3.672,4.284-3.06,6.732c-0.612,1.836-1.224,4.284-1.836,6.12c-1.836,8.568-1.836,17.748-2.448,26.316   c0,3.059,2.448,6.73,5.508,7.344c14.688,2.447,29.376,2.447,44.676,2.447c4.284,0,7.344-3.672,7.344-7.344   c0-11.016,0-22.032,1.836-33.048C211.969,190.332,210.133,186.048,205.849,184.824z" fill="#FFFFFF"/>
	<path d="M275.006,189.108c-9.793-11.628-24.48-12.24-37.332-6.732c-1.225,0.612-1.836,1.224-3.061,1.836   c-1.836-2.448-6.121-2.448-7.957,1.224c-4.895,12.852-6.731,28.152-7.344,42.228c0,4.283,3.672,7.344,7.957,7.957   c15.299,1.223,29.375-3.061,44.676-3.674c4.283,0,7.955-3.672,7.955-7.955C279.9,212.364,282.961,198.9,275.006,189.108z" fill="#FFFFFF"/>
	<path d="M349.67,182.988c-9.182,0-17.748,0-26.93,0.612c-6.73,0-17.748-1.224-21.42,6.12c-0.611,0.612-0.611,1.836-0.611,2.448   c-7.344,6.12-4.283,25.704-4.896,32.436c0,4.285,3.672,7.344,7.344,7.344c14.689,0.613,29.377,0.613,44.678,0.613   c3.059,0,6.73-2.449,7.344-5.508c1.836-11.628,2.447-23.256,2.447-35.497C357.625,186.048,353.953,182.988,349.67,182.988z" fill="#FFFFFF"/>
	<path d="M129.349,256.428c-14.076,0-28.152,0-42.84,0c-3.06,0-7.344,2.449-7.956,6.121c-1.836,11.016-1.836,22.031-1.836,33.66   c0,1.836,0.612,3.672,1.836,4.895c0,1.836,0.612,4.285,3.06,5.508c14.688,6.121,31.824,4.285,47.736,3.672   c4.284,0,7.956-3.672,7.956-7.955c0-12.24,0-24.48,0-36.721C137.305,260.1,134.245,256.428,129.349,256.428z" fill="#FFFFFF"/>
	<path d="M135.469,334.764c0-4.283-3.672-7.955-7.956-7.955c-13.464,0-29.988-0.613-41.004,8.568   c-9.18,7.955-11.628,28.15-7.344,38.555c-0.612,1.836,0.612,4.896,3.06,4.896c15.3,2.447,31.824,3.061,47.124,3.672   c3.672,0,7.956-3.672,7.344-7.344C135.469,362.305,135.469,348.229,135.469,334.764z" fill="#FFFFFF"/>
	<path d="M209.521,260.713c0.612-4.285-3.672-7.957-7.344-7.346c-11.628,0-23.256,1.838-34.884,1.838   c-1.836,0-3.672,0.611-4.896,1.836c-6.732,1.223-8.568,5.508-9.18,12.238c-1.224,9.793,0,18.973-0.612,28.766   c0,4.283,3.672,7.344,7.344,7.344c14.076,0.611,28.152,0,42.84,0c5.508,0,7.956-4.896,7.344-9.793   C207.073,283.969,207.685,272.34,209.521,260.713z" fill="#FFFFFF"/>
	<path d="M199.729,325.584c-7.344,1.225-15.3,2.447-22.644,3.061c-3.06,0.611-6.12,0-9.18,1.223   c-1.224,0.613-1.836,0.613-3.06,1.225l-0.612,0.613c-0.612,0.611-1.224,0.611-1.836,1.223c-1.224,0.613-1.836,1.225-1.836,2.449   c-3.672,12.238-4.284,25.703-4.896,37.943c0,3.061,2.448,6.732,5.508,7.344c12.852,1.836,25.704,2.447,39.168,2.447   c4.284,0,6.732-3.672,7.344-7.344c1.836-14.076,1.836-28.152,1.836-42.84C209.521,327.42,204.625,324.973,199.729,325.584z" fill="#FFFFFF"/>
	<path d="M281.125,367.812c-1.225-10.404-1.225-20.809,0-31.213c0.611-5.508-1.836-9.18-7.344-9.791   c-6.732-1.225-14.076-0.613-20.809,0.611c-6.732,0.611-13.463,0.611-20.195,2.449c-3.672,1.223-5.508,4.895-4.896,8.566   c-2.447,11.018-2.447,22.645-6.119,33.049c-1.837,4.283,2.447,9.18,7.344,9.18c14.688,0,29.375-3.061,44.676-3.672   C279.289,377.604,281.736,372.709,281.125,367.812z" fill="#FFFFFF"/>
	<path d="M270.109,253.367c-11.629,0-23.869,0-35.496,1.838c-2.449,0.611-4.896,3.059-5.508,5.508c-1.836,7.955-3.672,22.031,0,30.6   c-4.896,1.836-4.285,9.18,1.836,9.791c11.627,0.613,23.867,0,34.883,1.836c4.896,1.225,9.182-1.836,9.182-7.344   c0-11.016,0-22.031,1.836-33.047C278.064,258.264,275.617,253.367,270.109,253.367z" fill="#FFFFFF"/>
	<path d="M349.67,266.221c0-5.508-4.896-7.957-9.182-7.344c-11.016,1.836-23.867,1.836-33.66,8.566   c-4.895,3.672-7.344,7.957-8.566,14.076c-1.225,6.121-1.225,16.525,5.508,19.584l0,0c0.611,1.225,1.836,1.836,3.059,2.449   c11.018,2.447,23.258,1.223,34.885,1.836c4.283,0,6.732-3.672,7.344-7.344C350.281,287.641,349.67,276.625,349.67,266.221z" fill="#FFFFFF"/>
	<path d="M353.342,338.436c-0.613-3.059-4.285-5.508-7.346-5.508c-7.344,0-14.688,0.613-22.643,1.225   c-6.121,0.611-12.24,0-17.137,3.672c-1.225,1.225-1.836,3.061-1.836,4.283c-4.896,9.182-4.283,19.584-6.119,29.377   c-0.613,4.283,1.836,9.791,7.344,9.18c14.076-1.836,28.152-1.836,42.84-1.836c4.283,0,7.344-3.672,7.344-7.344   C355.789,360.469,355.178,349.453,353.342,338.436z" fill="#FFFFFF"/>
</g>
<g>
</g>
<g>
</g>
<g>
</g>
<g>
</g>
<g>
</g>
<g>
</g>
<g>
</g>
<g>
</g>
<g>
</g>
<g>
</g>
<g>
</g>
<g>
</g>
<g>
</g>
<g>
</g>
<g>
</g>
</svg>
