<?xml version="1.0" encoding="utf-8"?>
<!-- Generator: Adobe Illustrator 17.0.0, SVG Export Plug-In . SVG Version: 6.00 Build 0)  -->
<!DOCTYPE svg PUBLIC "-//W3C//DTD SVG 1.1//EN" "http://www.w3.org/Graphics/SVG/1.1/DTD/svg11.dtd">
<svg version="1.1" id="Capa_1" xmlns="http://www.w3.org/2000/svg" xmlns:xlink="http://www.w3.org/1999/xlink" x="0px" y="0px"
	 width="512px" height="512px" viewBox="0 0 512 512" enable-background="new 0 0 512 512" xml:space="preserve">
<g>
	<path fill="#D79759" d="M420.342,52.4c-39.416,11.778-66.403,51.965-56.035,93.057c6.025,23.898,24.111,41.819,45.681,47.367
		c11.042,7.327,24.13,11.128,39.091,8.822C534.253,188.512,514.749,24.189,420.342,52.4z"/>
	<path fill="#D79759" d="M458.766,214.587c-2.777-1.528-5.427-1.652-7.868-1.155c-67.196-3.695-110.92,63.252-125.558,122.41
		c-8.002,32.318-23.56,95.157-8.151,126.624c11.527,23.54,48.036,30.36,70.252,34.69c29.496,5.75,75.616,13.109,103.51-2.243
		c25.685-14.136,20.417-46.079,20.56-71.353C511.835,365.007,519.651,248.138,458.766,214.587z"/>
	<path fill="#D79759" d="M330.934,113.09c-0.704-2.123-2.125-3.406-3.761-4.193c-0.803-2.027-2.002-3.898-3.742-4.969
		c-9.17-5.641-19.967-5.842-30.321-8.441c-20.703-5.197-40.54-13.088-59.826-22.165c-31.3-14.733-59.848-35.055-91.524-48.795
		c-3.168-1.373-5.909-0.141-7.286,1.954c-3.8,0.894-7.166,3.8-7.565,8.909c-3.058,39.226-2.468,78.898-3.072,118.237
		c-0.44,29.028-6.172,60.437,6.139,87.344c1.953,4.265,8.628,5.77,12.386,3.248c2.825-1.897,4.607-3.264,6.065-4.721
		c27.894-8.971,53.644-26.631,81.004-37.412c11.566-4.556,23.349-8.079,35.174-11.394c-0.936,8.274-0.019,17.084,0.019,25.179
		c-0.136,7.063,5.379,10.553,10.893,10.498c5.514,0.058,11.028-3.425,10.891-10.498c0.052-10.085,1.503-21.093-1.085-30.907
		c12.34-3.284,24.678-6.598,36.853-10.674c4.42-1.479,6.052-5.907,5.352-9.753C334.637,148.986,336.299,129.296,330.934,113.09z
		 M315.487,158.77c-2.309,0.143-4.943,0.595-7.351,0.826c2.638-12.266,4.536-25.726,4.541-38.641c1.2,0.841,2.514,1.354,3.92,1.41
		C316.247,134.503,315.907,146.628,315.487,158.77z"/>
	<path fill="#D79759" d="M101.243,48.636c-27.279,1.698-33.894-16.524-50.495-32.963c-11.002-10.9-27.813-10.953-34.14,4.194
		c-2.466,5.908,4.798,12.565,10.502,10.504c8.812-3.186,14.475,9.647,19.605,15.354c5.002,5.567,10.869,10.731,17.456,14.335
		c12.638,6.908,27.832,8.692,40.416,0.923C109.881,57.708,108.079,48.209,101.243,48.636z"/>
	<path fill="#D79759" d="M96.63,137.374c-19.556-7.762-33.364-25.177-55.87-24.899c-16.046,0.198-35.65,9.104-40.414,25.337
		c-2.18,7.43,6.385,13.79,12.953,9.958c16.015-9.345,25.837-19.365,45.199-9.627c12.168,6.12,21.972,13.758,36.211,13.437
		C103.303,151.384,103.955,140.282,96.63,137.374z"/>
	<path fill="#D79759" d="M97.35,210.035c-13.982,10.814-33.13,7.617-47.94,16.89c-12.93,8.096-22.216,28.713-10.079,41.089
		c4.358,4.443,11.097,1.91,13.024-3.44c2.712-7.534,1.072-15.314,7.886-21.064c5.284-4.458,12.765-5.905,19.192-7.901
		c10.827-3.364,22.218-7.301,27.881-17.887C110.924,210.978,102.843,205.787,97.35,210.035z"/>
</g>
</svg>
