<?xml version="1.0" encoding="utf-8"?>
<!-- Generator: Adobe Illustrator 17.0.0, SVG Export Plug-In . SVG Version: 6.00 Build 0)  -->
<!DOCTYPE svg PUBLIC "-//W3C//DTD SVG 1.1//EN" "http://www.w3.org/Graphics/SVG/1.1/DTD/svg11.dtd">
<svg version="1.1" id="Capa_1" xmlns="http://www.w3.org/2000/svg" xmlns:xlink="http://www.w3.org/1999/xlink" x="0px" y="0px"
	 width="512px" height="512px" viewBox="0 0 512 512" enable-background="new 0 0 512 512" xml:space="preserve">
<g>
	<path fill="#4F86AE" d="M402.816,61.624C375.2-0.874,309.069-8.868,249.477,7.12C188.434,23.108,104.86,69.618,96.139,138.656
		c-5.087,40.696,6.54,82.119,32.702,113.368c11.628,14.536,23.255,28.342,34.883,42.876c2.18,2.908,16.715,16.715,22.528,24.71
		c0.727,2.906,2.18,5.086,2.18,7.994c-4.36,1.452-8.721,3.632-13.081,5.813c-8.721,5.088-17.441,15.989-12.354,26.163
		c2.18,5.086,5.814,8.721,10.174,11.626c-14.534,8.721-18.895,26.89-6.54,42.878c1.453,2.18,3.634,4.36,5.814,5.813
		c-5.087,5.088-7.994,12.354-2.907,19.623c7.994,12.352,21.802,21.8,37.063,27.615c0.727,21.075,16.715,38.516,37.063,43.602
		c11.628,2.908,24.708,0.728,34.883-5.813c8.721-5.814,18.895-18.169,18.168-29.069c11.628-2.18,22.529-5.814,30.522-12.354
		c14.534-11.629,29.796-37.789,10.902-47.236c1.453-1.455,2.906-2.18,4.36-3.635c15.261-13.081,11.628-27.615-0.727-36.336
		c2.907-2.18,5.814-4.36,7.994-6.54c13.808-15.263,4.36-28.343-10.174-37.064c16.715-47.236,55.231-86.48,69.038-135.897
		C420.984,156.097,420.257,100.867,402.816,61.624z M298.168,324.695c-5.087-1.452-10.174-2.18-15.988-2.906
		c1.453-28.343,4.36-55.231,10.901-82.846c7.993-31.249,26.889-55.957,40.695-84.299c2.907-6.54-5.086-13.081-10.173-7.994
		c-43.603,42.876-55.957,114.82-54.504,173.686c-5.814-0.726-12.354-1.452-18.168-1.452
		c11.628-33.429-36.336-124.997-57.411-135.898c-5.087-2.18-11.628,1.453-9.447,7.267c6.54,21.802,25.435,42.876,36.336,63.225
		c5.087,9.447,24.708,45.783,21.802,64.678c-12.354,0-24.708,1.455-36.336,4.36c-5.814-36.336-46.51-78.486-61.771-103.194
		c-44.33-75.579,23.255-162.785,95.2-184.587c79.212-23.982,153.338,19.621,154.066,103.921c0,40.696-19.621,74.852-41.423,106.828
		c-17.441,24.707-24.71,51.597-33.429,79.212C310.521,323.244,303.255,323.244,298.168,324.695z"/>
</g>
</svg>
