<?xml version="1.0" encoding="iso-8859-1"?>
<!-- Generator: Adobe Illustrator 16.0.0, SVG Export Plug-In . SVG Version: 6.00 Build 0)  -->
<!DOCTYPE svg PUBLIC "-//W3C//DTD SVG 1.1//EN" "http://www.w3.org/Graphics/SVG/1.1/DTD/svg11.dtd">
<svg xmlns="http://www.w3.org/2000/svg" xmlns:xlink="http://www.w3.org/1999/xlink" version="1.1" id="Capa_1" x="0px" y="0px" width="512px" height="512px" viewBox="0 0 431.175 431.176" style="enable-background:new 0 0 431.175 431.176;" xml:space="preserve">
<g>
	<path d="M339.227,51.896c-23.256-52.632-78.948-59.364-129.133-45.9C158.687,19.46,88.306,58.628,80.962,116.768   c-4.284,34.272,5.508,69.156,27.54,95.472c9.792,12.241,19.584,23.868,29.376,36.108c1.836,2.449,14.076,14.076,18.972,20.809   c0.612,2.447,1.836,4.283,1.836,6.732c-3.672,1.223-7.344,3.059-11.016,4.895c-7.344,4.285-14.688,13.465-10.404,22.033   c1.836,4.283,4.896,7.344,8.568,9.791c-12.24,7.344-15.912,22.645-5.508,36.109c1.224,1.836,3.06,3.672,4.896,4.895   c-4.284,4.285-6.732,10.404-2.448,16.525c6.732,10.402,18.36,18.359,31.212,23.256c0.612,17.748,14.076,32.436,31.212,36.719   c9.792,2.449,20.808,0.613,29.376-4.895c7.344-4.896,15.912-15.301,15.3-24.48c9.792-1.836,18.973-4.896,25.704-10.404   c12.24-9.793,25.092-31.824,9.181-39.779c1.224-1.225,2.447-1.836,3.672-3.061c12.852-11.016,9.792-23.256-0.612-30.6   c2.448-1.836,4.896-3.672,6.732-5.508c11.628-12.854,3.672-23.869-8.568-31.213c14.076-39.779,46.512-72.828,58.14-114.444   C354.527,131.456,353.915,84.944,339.227,51.896z M251.099,273.439c-4.284-1.223-8.568-1.836-13.464-2.447   c1.224-23.869,3.672-46.512,9.18-69.768c6.731-26.316,22.644-47.124,34.271-70.992c2.448-5.508-4.283-11.016-8.567-6.732   c-36.72,36.108-47.124,96.695-45.9,146.268c-4.896-0.611-10.404-1.223-15.3-1.223c9.792-28.152-30.6-105.265-48.348-114.445   c-4.284-1.836-9.792,1.224-7.956,6.12c5.508,18.36,21.42,36.108,30.6,53.244c4.284,7.956,20.808,38.556,18.36,54.468   c-10.404,0-20.808,1.225-30.6,3.672c-4.896-30.6-39.168-66.096-52.02-86.904c-37.332-63.648,19.584-137.088,80.172-155.448   c66.708-20.196,129.132,16.524,129.745,87.516c0,34.272-16.524,63.036-34.884,89.964c-14.688,20.807-20.809,43.452-28.152,66.708   C261.502,272.217,255.383,272.217,251.099,273.439z" fill="#FFFFFF"/>
</g>
<g>
</g>
<g>
</g>
<g>
</g>
<g>
</g>
<g>
</g>
<g>
</g>
<g>
</g>
<g>
</g>
<g>
</g>
<g>
</g>
<g>
</g>
<g>
</g>
<g>
</g>
<g>
</g>
<g>
</g>
</svg>
