<?xml version="1.0" encoding="iso-8859-1"?>
<!-- Generator: Adobe Illustrator 16.0.0, SVG Export Plug-In . SVG Version: 6.00 Build 0)  -->
<!DOCTYPE svg PUBLIC "-//W3C//DTD SVG 1.1//EN" "http://www.w3.org/Graphics/SVG/1.1/DTD/svg11.dtd">
<svg xmlns="http://www.w3.org/2000/svg" xmlns:xlink="http://www.w3.org/1999/xlink" version="1.1" id="Capa_1" x="0px" y="0px" width="512px" height="512px" viewBox="0 0 576.295 576.295" style="enable-background:new 0 0 576.295 576.295;" xml:space="preserve">
<g>
	<path d="M492.655,421.819c4.896-72.828,15.912-157.896,4.896-230.111c-0.612-4.896-4.896-7.344-9.181-7.956   c-3.672-7.956-10.403-14.688-15.911-21.42c-15.912-20.196-32.437-39.168-49.572-58.14c-22.032-25.093-50.796-61.812-82.62-79.561   c-1.836-4.896-5.508-8.568-12.24-8.568C252.75,17.899,170.743-15.76,97.303,9.332c-0.612,0-1.224,0.612-2.448,1.224   c-5.508-4.896-15.912-2.448-16.524,7.344c-11.016,173.809,2.448,350.677,3.06,525.097c0,5.508,3.06,9.792,6.732,11.628   c11.628,28.151,105.876,20.808,123.012,20.808c90.577,0,178.705-6.732,269.28-2.448c4.284,0,7.956-2.447,9.792-6.731   c0.612-0.612,1.225-1.225,1.837-1.836c6.119-14.076-1.837-29.988-3.061-44.677C485.923,487.304,490.207,454.256,492.655,421.819z    M416.155,201.5c-23.868,1.224-47.735,3.672-70.992,6.12c-9.792-52.632-3.06-107.712-14.075-159.732   c22.644,26.316,49.571,50.185,72.827,75.889c15.301,17.136,30.601,34.884,45.288,53.243c6.12,7.956,11.628,17.137,19.584,23.257   C451.651,197.828,432.679,200.888,416.155,201.5z" fill="#FFFFFF"/>
</g>
<g>
</g>
<g>
</g>
<g>
</g>
<g>
</g>
<g>
</g>
<g>
</g>
<g>
</g>
<g>
</g>
<g>
</g>
<g>
</g>
<g>
</g>
<g>
</g>
<g>
</g>
<g>
</g>
<g>
</g>
</svg>
