<?xml version="1.0" encoding="iso-8859-1"?>
<!-- Generator: Adobe Illustrator 16.0.0, SVG Export Plug-In . SVG Version: 6.00 Build 0)  -->
<!DOCTYPE svg PUBLIC "-//W3C//DTD SVG 1.1//EN" "http://www.w3.org/Graphics/SVG/1.1/DTD/svg11.dtd">
<svg xmlns="http://www.w3.org/2000/svg" xmlns:xlink="http://www.w3.org/1999/xlink" version="1.1" id="Capa_1" x="0px" y="0px" width="512px" height="512px" viewBox="0 0 563.205 563.205" style="enable-background:new 0 0 563.205 563.205;" xml:space="preserve">
<g>
	<path d="M555.625,223.558c-15.912-75.888-70.38-131.58-132.191-173.196C365.905,11.806,285.121-20.63,220.249,16.09   C94.177,33.838,1.765,186.226,2.377,308.014c0.612,157.284,174.42,271.116,320.076,253.368   C478.514,541.798,586.226,372.886,555.625,223.558z M397.117,186.838c34.884-0.612,70.38,22.644,69.156,59.976   c0,3.672-4.896,30.6-11.628,26.928c-6.12-3.06-11.017-11.016-15.912-15.912c-10.404-12.24-20.809-25.704-36.108-32.436   c-9.18-4.284-22.032-4.284-29.376,3.06c-7.344,7.344-29.987,55.08-42.228,37.944c-1.225-1.224-1.836-2.448-3.061-3.06   C329.186,221.11,351.829,187.45,397.117,186.838z M166.393,185.614c45.9-14.076,69.768,21.42,60.588,63.648   c-1.836,9.18-3.672,24.48-13.464,14.076c-5.508-6.12-10.404-12.852-15.3-19.584c-7.344-9.18-18.972-23.256-32.436-22.644   c-12.852,0.612-16.524,11.016-21.42,20.808c-3.672,7.956-7.344,16.524-11.628,23.868c-6.732,12.852-9.18,17.136-16.524,2.448   c-1.224-3.06-3.672-4.284-6.12-4.896C110.701,228.454,128.449,196.63,166.393,185.614z M105.805,440.206   c-3.672-4.896-7.344-9.792-9.792-15.3c4.284,6.12,9.18,11.628,13.464,17.136C107.641,441.43,106.417,440.818,105.805,440.206z    M283.285,502.63c-52.02,1.836-106.488-22.032-143.82-57.528c-24.48-23.256-58.752-64.871-58.752-101.592   c85.68,15.912,172.584,24.48,260.101,18.36c31.824-1.836,101.592,0.612,136.476-19.584   C460.153,432.862,375.085,499.57,283.285,502.63z" fill="#3150c6"/>
</g>
<g>
</g>
<g>
</g>
<g>
</g>
<g>
</g>
<g>
</g>
<g>
</g>
<g>
</g>
<g>
</g>
<g>
</g>
<g>
</g>
<g>
</g>
<g>
</g>
<g>
</g>
<g>
</g>
<g>
</g>
</svg>
